<svg id="Group_4" data-name="Group 4" xmlns="http://www.w3.org/2000/svg" width="51.134" height="50.439" viewBox="0 0 51.134 50.439">
  <g id="Group_3" data-name="Group 3" transform="translate(0 0)">
    <path id="Path_1" data-name="Path 1" d="M420.5,171.857a1.9,1.9,0,0,0,.337.032.252.252,0,0,0-.136-.045A.519.519,0,0,0,420.5,171.857Z" transform="translate(-394.924 -167.683)" fill="#fff" fill-rule="evenodd"/>
    <path id="Path_2" data-name="Path 2" d="M516.1,120.7c.117.045.48.2.46.117A3.185,3.185,0,0,0,516.1,120.7Z" transform="translate(-484.324 -119.859)" fill="#fff" fill-rule="evenodd"/>
    <path id="Path_3" data-name="Path 3" d="M526.4,122.2a2.626,2.626,0,0,0,.454.149C526.861,122.3,526.491,122.206,526.4,122.2Z" transform="translate(-493.956 -121.262)" fill="#fff" fill-rule="evenodd"/>
    <path id="Path_4" data-name="Path 4" d="M550.9,140.9a1.426,1.426,0,0,0,.428.188A2.385,2.385,0,0,0,550.9,140.9Z" transform="translate(-516.868 -138.749)" fill="#fff" fill-rule="evenodd"/>
    <path id="Path_5" data-name="Path 5" d="M567.1,136.3a4.755,4.755,0,0,0,.733.376,1.543,1.543,0,0,0-.3-.182C567.392,136.43,567.236,136.358,567.1,136.3Z" transform="translate(-532.017 -134.447)" fill="#fff" fill-rule="evenodd"/>
    <path id="Path_6" data-name="Path 6" d="M575.8,196.9c.162.078.389.24.616.376a3.175,3.175,0,0,0,.571.3c-.195-.1-.4-.22-.6-.35A4.187,4.187,0,0,0,575.8,196.9Z" transform="translate(-540.153 -191.117)" fill="#fff" fill-rule="evenodd"/>
    <path id="Path_7" data-name="Path 7" d="M600.3,185.4a6.955,6.955,0,0,0,.765.525c.149.1.3.188.447.285a4.015,4.015,0,0,1,.4.311c.058-.006-.123-.136-.337-.292a5.155,5.155,0,0,1-.519-.383c-.13-.078-.227-.123-.331-.175-.071-.052-.13-.1-.2-.156A.646.646,0,0,0,600.3,185.4Z" transform="translate(-563.064 -180.363)" fill="#fff" fill-rule="evenodd"/>
    <path id="Path_8" data-name="Path 8" d="M673.916,239.5c-.039.019-.026.071.091.188.045.026.071.026.084,0C674.026,239.623,673.974,239.565,673.916,239.5Z" transform="translate(-631.887 -230.955)" fill="#fff" fill-rule="evenodd"/>
    <path id="Path_9" data-name="Path 9" d="M693.1,273.2a6.487,6.487,0,0,0,.467.7,7.026,7.026,0,0,0,.551.726c.032.058.013.078.084.175.143.253.512.785.175.253l-.136-.253c-.045-.078-.1-.156-.149-.227-.1-.149-.2-.292-.3-.441C693.586,273.836,693.346,273.55,693.1,273.2Z" transform="translate(-649.846 -262.47)" fill="#fff" fill-rule="evenodd"/>
    <path id="Path_10" data-name="Path 10" d="M705.1,269.7a1.971,1.971,0,0,0,.253.376A1.2,1.2,0,0,0,705.1,269.7Z" transform="translate(-661.068 -259.196)" fill="#fff" fill-rule="evenodd"/>
    <path id="Path_11" data-name="Path 11" d="M686.2,295.1a4.536,4.536,0,0,0,.292.447A1.961,1.961,0,0,0,686.2,295.1Z" transform="translate(-643.393 -282.949)" fill="#fff" fill-rule="evenodd"/>
    <path id="Path_12" data-name="Path 12" d="M706.5,277.9c.065.149.272.435.357.61C707.006,278.62,706.636,278.1,706.5,277.9Z" transform="translate(-662.377 -266.865)" fill="#fff" fill-rule="evenodd"/>
    <path id="Path_13" data-name="Path 13" d="M711.8,279.7a4.417,4.417,0,0,0,.409.661C712.144,280.206,711.93,279.914,711.8,279.7Z" transform="translate(-667.333 -268.548)" fill="#fff" fill-rule="evenodd"/>
    <path id="Path_14" data-name="Path 14" d="M686.53,305.4c-.032.045.1.227.188.37C686.737,305.718,686.594,305.53,686.53,305.4Z" transform="translate(-643.697 -292.581)" fill="#fff" fill-rule="evenodd"/>
    <path id="Path_15" data-name="Path 15" d="M693.5,305.5c.039.091.149.272.266.473s.253.4.344.538c-.1-.188-.182-.344-.279-.506-.052-.078-.1-.162-.149-.246-.026-.039-.052-.084-.084-.13S693.532,305.545,693.5,305.5Z" transform="translate(-650.22 -292.675)" fill="#fff" fill-rule="evenodd"/>
    <path id="Path_16" data-name="Path 16" d="M719.2,291.5a5.18,5.18,0,0,0,.571.934C719.648,292.155,719.349,291.818,719.2,291.5Z" transform="translate(-674.254 -279.583)" fill="#fff" fill-rule="evenodd"/>
    <path id="Path_17" data-name="Path 17" d="M716.9,308.3c.046.117.149.292.22.454.039,0,.013-.071-.039-.162S716.952,308.391,716.9,308.3Z" transform="translate(-672.103 -295.293)" fill="#fff" fill-rule="evenodd"/>
    <path id="Path_18" data-name="Path 18" d="M723.2,314.3a1.658,1.658,0,0,0,.233.447A3.039,3.039,0,0,0,723.2,314.3Z" transform="translate(-677.994 -300.904)" fill="#fff" fill-rule="evenodd"/>
    <path id="Path_19" data-name="Path 19" d="M729.8,320.3a.739.739,0,0,0,.117.259c.058.1.11.175.123.11-.052-.123-.078-.1-.1-.084C729.858,320.456,729.9,320.449,729.8,320.3Z" transform="translate(-684.166 -306.515)" fill="#fff" fill-rule="evenodd"/>
    <path id="Path_20" data-name="Path 20" d="M720.238,340.543c-.078-.292-.389-.713,0,0Z" transform="translate(-675.045 -325.079)" fill="#fff" fill-rule="evenodd"/>
    <path id="Path_21" data-name="Path 21" d="M719.2,358.9a3.648,3.648,0,0,0,.123.344c.052.117.11.233.162.363a1.579,1.579,0,0,0-.052-.169c-.026-.065-.058-.136-.084-.207A3.077,3.077,0,0,0,719.2,358.9Z" transform="translate(-674.254 -342.612)" fill="#fff" fill-rule="evenodd"/>
    <path id="Path_22" data-name="Path 22" d="M718.828,362.021c-.078-.058.11.37.117.266C718.906,362.2,718.867,362.105,718.828,362.021Z" transform="translate(-673.888 -345.525)" fill="#fff" fill-rule="evenodd"/>
    <path id="Path_23" data-name="Path 23" d="M710.9,374.4a1.205,1.205,0,0,0,.11.383A.86.86,0,0,0,710.9,374.4Z" transform="translate(-666.492 -357.107)" fill="#fff" fill-rule="evenodd"/>
    <path id="Path_24" data-name="Path 24" d="M719.9,396.9c.078.467.194.6,0,0Z" transform="translate(-674.908 -378.148)" fill="#fff" fill-rule="evenodd"/>
    <path id="Path_25" data-name="Path 25" d="M609.9,239.2a1.833,1.833,0,0,1,.188.227,1.192,1.192,0,0,1,.285.188c.1.084.208.175.3.24a1.316,1.316,0,0,0-.344-.3C610.2,239.446,610.056,239.343,609.9,239.2Z" transform="translate(-572.041 -230.674)" fill="#fff" fill-rule="evenodd"/>
    <path id="Path_26" data-name="Path 26" d="M691.13,291.241c.078.123.1.091.182.233.026,0-.013-.065,0-.078.091.123.156.221.214.311s.1.188.175.3c-.007-.032-.013-.071,0-.078.1.331.441.59.739,1.239-.065-.156-.162-.357-.272-.577s-.266-.441-.409-.668-.292-.441-.428-.636-.253-.363-.331-.486c0,.1.344.506.324.59C691.292,291.423,691.13,291.118,691.13,291.241Z" transform="translate(-647.882 -278.928)" fill="#fff" fill-rule="evenodd"/>
    <path id="Path_27" data-name="Path 27" d="M715.2,290.889c.039.065.007.039-.013.006-.019.039.143.24.169.272a1.671,1.671,0,0,0-.2-.363C715.075,290.688,715.036,290.636,715.2,290.889Z" transform="translate(-670.407 -278.842)" fill="#fff" fill-rule="evenodd"/>
    <path id="Path_28" data-name="Path 28" d="M721.535,302.623l.052-.026c.071.188.156.441.246.668.045.117.091.227.13.324s.078.182.11.246a6.481,6.481,0,0,0-.331-.914c-.065-.169-.13-.331-.182-.473a1.709,1.709,0,0,1-.11-.35c-.045-.071-.11-.207-.155-.279-.045-.136-.091-.266-.143-.4s-.117-.259-.182-.4c-.13-.259-.247-.532-.4-.785s-.292-.519-.434-.772-.3-.506-.441-.765a1.923,1.923,0,0,0,.207.454c.052.084.1.169.162.259s.11.182.162.279c.11.188.227.376.318.558a1.876,1.876,0,0,1,.188.506c.052.084.013-.007-.013-.065.058.117.123.253.2.4s.162.311.234.493A6.736,6.736,0,0,1,721.535,302.623Z" transform="translate(-674.721 -286.316)" fill="#fff" fill-rule="evenodd"/>
    <path id="Path_29" data-name="Path 29" d="M718.2,364.6c.013.1.071.246.084.35A.575.575,0,0,0,718.2,364.6Z" transform="translate(-673.318 -347.942)" fill="#fff" fill-rule="evenodd"/>
    <g id="Group_2" data-name="Group 2">
      <g id="Group_1" data-name="Group 1">
        <path id="Path_30" data-name="Path 30" d="M69.821,140.658c.1-.227.246-.46.344-.7a7.029,7.029,0,0,0,.279-.837c.039-.136.091-.272.13-.415s.084-.285.136-.428.091-.253.143-.376.091-.253.136-.376.084-.253.13-.383a3.639,3.639,0,0,0,.117-.4c.091-.409.143-.538.214-.811.045-.2.078-.4.117-.577s.071-.35.091-.506a2.442,2.442,0,0,1,.2-.739c.071-.285.123-.61.182-.934.032-.162.045-.318.065-.467s.039-.292.065-.422c.013-.078.006-.253.013-.285.045-.331.1-.629.156-.921s.1-.571.143-.862c.019-.143.052-.292.058-.447s.019-.311.032-.473.013-.337.013-.519-.019-.37-.045-.571a2.126,2.126,0,0,0,.22-.571c.019-.13-.019-.409.006-.512.1-.37.4-.143.383-.8.039-.045.078.065.117.084.357-.123.726.052.966-.188.279.4.447.253.7.564a7.261,7.261,0,0,1,.493.875c.091.156.169.311.253.467s.149.3.227.434c.11-.019.2.409.3.48.039.13.078.253.11.37l.1.35c.065.233.13.46.195.733.045.052.078.175.123.188.123.571.279,1.148.363,1.79a9.467,9.467,0,0,1,.11,1.012c.013.182.019.363.019.551s.013.383,0,.584c-.006.143-.026.454-.045.636-.013.149-.026.311-.052.473s-.045.337-.065.512c-.045.35-.084.707-.143,1.051s-.1.668-.13.947a4.588,4.588,0,0,0-.071.674c-.039.214-.078.2-.117.415a3.973,3.973,0,0,1-.182,1.342c-.065.182-.266.467-.422.856-.11.292-.208.584-.292.869-.045.143-.084.285-.13.421a2.662,2.662,0,0,1-.162.4c-.117.233-.311.441-.441.681-.039.078-.091.162-.143.259s-.11.195-.169.3c-.117.214-.233.441-.357.674-.246.454-.493.895-.629,1.154a8.539,8.539,0,0,1-.473.875c-.182.259-.389.409-.467.318a4.283,4.283,0,0,0-.629.668c-.233.285-.506.6-.772.947s-.577.674-.856.992a10.958,10.958,0,0,1-.85.824,5.235,5.235,0,0,1-.525.545c-.182.169-.37.337-.564.486l-.584.447c-.195.149-.383.3-.577.454-.149.123-.318.292-.48.409-.259.208-.661.415-1.025.649-.3.2-.61.376-.888.538a8.8,8.8,0,0,1-.824.454,8.948,8.948,0,0,1-2.14,1.076c-.266.117-.512.279-.817.4-.253.117-.525.156-.8.266-.143.052-.279.117-.422.182-.071.032-.143.065-.208.1s-.143.052-.208.071c-.208.065-.383.091-.551.143-.22.071-.35.156-.59.214s-.519.071-.778.13a14.267,14.267,0,0,1-2.847.473c-.2.045-.4.065-.6.1s-.389.045-.59.065c-.1.006-.195.019-.292.026l-.292.013-.6.019c-.4.019-.811,0-1.239.007h-.324c-.11,0-.22-.007-.337-.007-.227-.006-.46-.006-.7-.006-.24-.019-.447-.058-.655-.084a6.654,6.654,0,0,0-.674-.052,1.566,1.566,0,0,0-.279-.078c-.246-.026-.5-.058-.752-.1-.123-.019-.253-.045-.383-.065s-.253-.058-.376-.084l-.759-.175c-.253-.058-.506-.123-.759-.169a.452.452,0,0,0-.13-.078c-.35-.065-.713-.162-1.089-.259-.188-.052-.376-.1-.558-.162s-.37-.13-.551-.188-.357-.13-.532-.195-.337-.143-.493-.214a8.862,8.862,0,0,1-.856-.415c-.2-.071-.415-.162-.623-.259-.1-.052-.214-.1-.318-.149s-.214-.117-.318-.175q-.321-.185-.661-.37c-.22-.13-.447-.272-.674-.409-.434-.246-.862-.493-1.252-.759-.188-.13-.389-.279-.59-.428s-.422-.3-.636-.46-.415-.324-.61-.48c-.1-.078-.195-.156-.285-.233s-.175-.156-.259-.227c-.195-.182-.357-.376-.545-.551l-.525-.486c-.175-.162-.363-.331-.532-.519-.629-.726-1.31-1.492-1.92-2.283-.149-.2-.3-.389-.454-.59s-.279-.4-.415-.59c-.279-.383-.512-.772-.733-1.122-.071-.11-.13-.214-.188-.324s-.11-.22-.162-.331c-.11-.227-.214-.454-.35-.713-.1-.214-.208-.434-.318-.648s-.227-.434-.331-.648-.208-.441-.3-.668a6.1,6.1,0,0,1-.272-.674c-.078-.227-.136-.46-.208-.668-.1-.272-.182-.538-.272-.811s-.188-.545-.266-.837a36.5,36.5,0,0,1-.8-4.293c-.013-.22-.026-.46-.039-.707s-.013-.5-.019-.765c-.006-.13-.006-.266-.013-.4v-.409c0-.272.006-.558.006-.837s.026-.571.039-.85l.019-.428c.013-.143.026-.285.039-.422.026-.279.058-.558.084-.83s.078-.532.117-.791c.143-.447.169-.888.272-1.362.169-.72.409-1.524.681-2.328.065-.2.136-.4.208-.6s.143-.4.214-.59.149-.389.22-.577.143-.376.208-.558a26.373,26.373,0,0,1,5.59-8.022,23.763,23.763,0,0,1,8.158-5.22,2.916,2.916,0,0,1,.376-.182c.136-.058.285-.11.434-.162a5.554,5.554,0,0,1,.8-.227,3.318,3.318,0,0,1,.564-.227c.785-.143,1.738-.46,2.73-.629.266.045.85-.11,1.239-.1.156-.078-.22-.013.045-.084a4.45,4.45,0,0,0,.739.006c.156-.006.324-.019.5-.032s.363-.013.551-.026a19.9,19.9,0,0,1,2.036-.019c-.071,0-.084.026,0,.032.24-.032.35.058.61.071.22.013.434.026.642.045s.4.052.6.084.383.058.571.091l.538.117.525.117c.175.039.344.091.519.136.344.1.694.182,1.051.292a2.609,2.609,0,0,1,.85.175c-.266-.058-.6-.143-.6-.071q.165.029.35.078c.058.013.117.032.182.045l.175.058a4.329,4.329,0,0,1,.571.24c.13.039.246.078.357.1s.208.071.3.1a5.208,5.208,0,0,1,.6.24c.117.039-.136.032.11.117.733.253,1.07.447,1.712.713a3.1,3.1,0,0,0,.525.324,4.791,4.791,0,0,0,.584.292c.182.13-.246-.065-.084.039.136.078.272.156.4.227s.259.156.383.233c.253.156.506.292.759.428a1.965,1.965,0,0,0,.35.331c.13.091,0-.084.188.065.162.156-.182-.039-.162.039.246.188.175.188.279.3a5.972,5.972,0,0,1,.869.707c.3.266.668.525.96.785.24.233.311.37.6.616.233.195.447.344.694.577.117.136-.123-.045.058.136a14.335,14.335,0,0,1,2.049,2.516q-.136-.214-.272-.409c-.091-.13-.188-.246-.279-.363-.188-.233-.37-.454-.558-.655s-.383-.4-.571-.61c-.045-.052-.091-.1-.143-.156s-.1-.1-.143-.156c-.1-.1-.195-.214-.292-.324-.175-.071-.35-.4-.551-.447-.032-.084.188.078-.013-.091a1.886,1.886,0,0,1-.208-.156c.071.169-.117.006-.227-.013-.091-.084-.182-.162-.272-.246s-.182-.149-.266-.22c-.175-.143-.344-.285-.506-.422s-.337-.259-.5-.389-.337-.253-.512-.376c-.123-.1.117.026-.026-.091-.266-.188-.486-.318-.8-.551-.13-.019-.37-.117-.292.019a15.806,15.806,0,0,1,1.608,1.148c.285.214.551.46.824.694.136.117.272.227.4.35l.389.35c.156.143.324.266.467.4a1.344,1.344,0,0,1,.3.37,11,11,0,0,0-1.271-1.044c-.272-.214-.538-.447-.8-.687s-.551-.447-.83-.642c-.156-.11-.24-.13-.383-.22-.11-.071-.279-.233-.409-.318s-.162-.065-.279-.143c-.246-.156-.409-.311-.687-.467-.227-.136-.473-.246-.72-.363-.123-.058-.246-.117-.376-.182-.065-.032-.123-.065-.188-.1l-.195-.1c-.11-.019-.1.058.019.123.311.149.486.253.674.344s.37.188.668.37c-.071-.032-.117-.045-.13-.019a1.579,1.579,0,0,1,.376.233c-.454-.266-.467-.143-.337-.006a25.854,25.854,0,0,1,3.255,2.231c.032.052.065.091.1.143a.939.939,0,0,0,.143.175,22.16,22.16,0,0,1,2.652,2.737,37.558,37.558,0,0,0-3.353-3.255c-.058-.026-.045.039-.169-.078-.065-.058-.136-.123-.208-.182s-.149-.117-.22-.175c-.149-.117-.3-.227-.454-.337-.078-.052-.149-.11-.22-.162s-.149-.1-.22-.143c-.143-.1-.272-.182-.389-.259-.123-.039-.24-.084-.363-.117s-.24-.065-.357-.091c-.188-.117-.37-.227-.551-.331s-.363-.182-.545-.266-.357-.169-.532-.24-.357-.136-.532-.2-.35-.136-.532-.188-.357-.117-.545-.175c-.363-.13-.739-.24-1.135-.376-.006.045-.136.013-.195.026.117.078.182.156.318.24.253.1.512.2.746.266.156.084.318.162.493.246.084.039.175.078.266.123l.272.136q.272.136.564.272c.195.091.383.2.577.3a17.541,17.541,0,0,1,2.276,1.4c.13.188-.039.13-.195.11a14.669,14.669,0,0,0-2.114-1.232c-.182.007-.208.078-.123.182a1.357,1.357,0,0,0,.214.188c.052.032.1.071.169.11s.123.084.195.123c.117.071.246.149.383.227s.285.162.422.259.292.188.441.285.3.188.441.292c.285.208.564.4.8.571s.434.331.577.441a23.507,23.507,0,0,1,3.294,3.521,20.077,20.077,0,0,1,2.464,4.2,20.058,20.058,0,0,0-2.691-4.384c.032-.013.006-.071-.078-.169-.13-.156-.266-.3-.4-.46s-.266-.318-.409-.467c-.292-.3-.564-.616-.862-.9-.149-.143-.292-.292-.434-.434l-.441-.4c-.143-.13-.279-.266-.428-.389l-.415-.357c-.136-.071-.279-.182-.447-.292s-.337-.24-.519-.37a5.8,5.8,0,0,0-.525-.357,3.448,3.448,0,0,0-.473-.253.87.87,0,0,0,.272.409c.156.156.37.331.6.532a5.746,5.746,0,0,0-.759-.486c-.123-.071-.246-.143-.363-.214s-.24-.13-.357-.188c-.188-.1-.428-.266-.661-.4a4.373,4.373,0,0,0-.545-.279c-.052-.013.019.058-.065.013a2.792,2.792,0,0,0-.3-.169,2.631,2.631,0,0,0-.409-.22,1.837,1.837,0,0,0-.538-.188,18.989,18.989,0,0,0-3.437-1.115c-.065-.013-.156-.039-.233-.058s-.149-.032-.156-.032c-.117-.013-.026.039-.175.013-.084-.013-.039-.039-.162-.058-.467-.091-1.005-.143-1.472-.214-.292-.039-.6-.058-.914-.091-.156-.019-.311-.019-.467-.026s-.311-.013-.467-.013c-.078,0-.156-.006-.227-.006h-.227c-.149,0-.3.006-.441.006s-.279,0-.415.006l-.383.019c-.214.019.071.058-.22.071-.415.019-.83.084-1.252.136-.214.019-.422.065-.636.1s-.422.071-.636.11a22.6,22.6,0,0,0-2.542.668c-.123.045-.006.078-.195.123-.227.084-.195-.006-.4.071a1.271,1.271,0,0,0-.285.188,26.085,26.085,0,0,0-2.782,1.271,19.846,19.846,0,0,0-2.633,1.647A20.254,20.254,0,0,0,34.809,120a17.74,17.74,0,0,0-2.172,3.534c-.1.195-.195.389-.285.577s-.169.389-.253.577c-.169.376-.3.759-.441,1.135-.071.188-.13.383-.188.571s-.117.383-.175.571-.1.389-.149.584-.11.389-.143.59c-.058.292-.117.59-.169.888s-.084.6-.123.9-.058.59-.084.869c-.006.071-.013.136-.019.208s-.006.136-.013.2c-.013.13-.019.259-.026.383a4.957,4.957,0,0,0-.058.577c0,.3.052.61.052.908.013.2.019.409.026.616s.006.415.019.616c.032.409.045.824.117,1.226.039.227.071.447.11.668s.091.441.143.655l.071.324.084.324c.058.214.117.428.175.648.071.246.136.48.2.72.032.117.065.24.091.363s.078.24.117.357c.058.156.123.311.195.473.032.078.071.156.1.24s.071.156.11.233c.1.22.188.447.272.674s.2.441.3.661c.052.11.1.22.149.331s.11.208.169.318c.11.208.22.415.337.616a35.845,35.845,0,0,0,2.179,3.015c.22.259.48.512.739.778.065.065.13.136.195.2s.136.13.2.195l.409.389c.13.136.279.253.415.376s.279.246.409.37c.272.233.551.454.8.661.921.545,1.777,1.252,2.853,1.8.117.058.2.078.318.13s.208.1.311.149l.318.136c.214.091.422.195.636.292.434.175.856.376,1.29.525a13.413,13.413,0,0,0,2.425.707,3.337,3.337,0,0,0,.765.175c.123.013.246.032.376.045s.253.019.376.032c.551.071,1.057.162,1.589.214.175.007.337-.013.512-.013.266.006.532.032.811.039l.415.019c.143.006.285.013.434.006a11.365,11.365,0,0,0,1.368-.136c.117-.013.233-.032.357-.052s.24-.032.363-.052c.24-.039.486-.071.746-.091.1-.019.195-.045.3-.078s.214-.058.324-.091.227-.058.35-.091c.058-.013.117-.032.182-.045s.117-.032.182-.052c.24-.071.486-.136.726-.195.123-.026.24-.065.35-.091s.227-.058.337-.084c.175-.071.357-.136.532-.2s.35-.143.532-.214c.357-.13.707-.279,1.064-.428l.266-.11c.091-.039.175-.078.259-.123.175-.084.35-.162.519-.246a5.549,5.549,0,0,0,.512-.272l.506-.292c.22-.136.422-.3.629-.441.1-.071.208-.136.318-.208a2.414,2.414,0,0,1,.337-.195c.2-.195.447-.357.694-.558.123-.1.253-.195.383-.292.065-.052.13-.1.195-.149s.123-.11.188-.162a18.546,18.546,0,0,0,1.44-1.42c.162-.182.344-.363.525-.558s.344-.4.519-.6c.084-.1.162-.2.233-.3s.143-.2.208-.292a2.811,2.811,0,0,0,.311-.545c-.039-.24.13-.409.37-.6a2.9,2.9,0,0,0,.694-.791c.149-.389.039-.4.019-.61a2.972,2.972,0,0,1,.246-.473c.091-.149.175-.3.272-.447A9.109,9.109,0,0,1,69.821,140.658ZM62.61,111.548c0-.019.026-.019.071,0C62.59,111.418,62.273,111.372,62.61,111.548Zm.1.084c.24.123.506.311.765.473.13.084.253.162.37.227s.22.13.311.175-.123.019.006.13a4.75,4.75,0,0,1,.785.441c.1-.1-.61-.46-.577-.577a1.574,1.574,0,0,1-.48-.357c-.279-.143-.441-.246-.59-.337a2.431,2.431,0,0,0-.493-.272C62.9,111.658,62.72,111.548,62.714,111.632Z" transform="translate(-26.1 -107.73)" fill="#fff" fill-rule="evenodd"/>
      </g>
    </g>
  </g>
</svg>
